<?xml version="1.0" encoding="UTF-8"?>
<svg id="Layer_1" data-name="Layer 1" xmlns="http://www.w3.org/2000/svg" viewBox="0 0 213.85 221.99">
  <defs>
    <style>
      .cls-1 {
        stroke: #231f20;
      }

      .cls-1, .cls-2, .cls-3, .cls-4 {
        stroke-miterlimit: 10;
      }

      .cls-5 {
        fill: #b4b3b4;
      }

      .cls-2 {
        fill: #c5de8b;
      }

      .cls-2, .cls-4 {
        stroke: #080808;
      }

      .cls-3 {
        fill: #f9a21e;
        stroke: #faa21c;
      }

      .cls-4 {
        fill: #fff680;
      }
    </style>
  </defs>
  <path class="cls-2" d="M113.78,70.72l-25.29,31.73c-.21.26-.55.39-.88.34l-40.41-6.72c-.75-.12-1.32.65-.99,1.33l17.95,36.88c.2.41.07.9-.3,1.17l-43.35,30.58c-.85.6-1.9-.44-1.3-1.29l22.4-31.99c.21-.3.22-.7.03-1.02L.64,64.36c-.43-.71.21-1.59,1.02-1.39l79.46,19.63c.4.1.82-.08,1.02-.43L130.11.96c.46-.77,1.64-.51,1.73.38l9.25,92.12c.03.35.26.65.59.77l71.08,27.9c1.03.4.62,1.95-.48,1.79l-86.31-12.72c-.37-.06-.68-.33-.77-.7l-9.79-39.44c-.19-.75-1.15-.96-1.63-.36Z"/>
  <g>
    <g>
      <path class="cls-3" d="M93.35,149.84c.21-1.5,1.21-3.9,2.65-3.43,0,0,2.93,1.26,3.88,1.18,1.85-.14,6.32-3.36,6.32-3.36,1.16-.58,2.7.06,3.43,1.42.36.68.46,1.41.32,2.05-.14.63-.52,1.17-1.1,1.46,0,0-5.28,3.43-7.39,3.66-2.25.24-8.17-2.52-8.1-2.98Z"/>
      <path class="cls-3" d="M111.12,136.24c-.55-.07-1-.35-1.45-.69-.72-.55-1.78-1.42-2.98-2.37-1.13-.9-4.93-4.08-6.18-5.24s-2.86-.14-4.53.57,4.59-6,4.59-6c.78.22,1.55.67,2.27,1.2s1.4,1.14,2,1.7c1.83,1.45,5.61,4.49,8.17,6.53,2.7,2.65-.2,4.94-1.88,4.29Z"/>
      <path class="cls-5" d="M117.31,142.34c-.17.56-.54,1.01-1,1.28-.46.27-1,.36-1.53.21l-17.47-5.06c-1.06-.31-1.63-1.47-1.29-2.6.17-.56.55-1.01,1-1.28s17.22,4.8,17.22,4.8c2.64.79,3.42,1.51,3.07,2.64Z"/>
      <path class="cls-1" d="M108.53,115.47c-.29.29-.57.56-.79.79-1.51,1.44-8.23,8.18-9.38,9.56-2.61,2.76-6.33,6.62-8.52,8.96-2.3,2.04-2.39,4.97.14,6.81l.07.05c1.56,1.22,3.32,2.33,4.89,3.52.92.73,2.32,1.35,2.32,2.59-.1,1.16-1.4,2.75-2.82,2.78-1.11.01-2.01-.88-2.89-1.45-1.41-1.03-3.03-2.07-4.38-3.11-4.69-3.21-6.43-7.7-3.24-12.29,1.15-1.72,2.77-3.04,4.18-4.61,3.58-3.74,6.22-6.59,9.42-9.81,1.5-1.53,3.6-3.67,5.69-5.81h0s5.31,2.02,5.31,2.02Z"/>
    </g>
    <path class="cls-1" d="M108.87,115.15c-.12.11-.23.22-.34.32l-5.31-2.02c.24-.24.49-.49.73-.74,0-.01,0-.02.01-.02,1.39-1.11,3.28-1.22,4.13-.27.6.68.95,1.67.79,2.72Z"/>
  </g>
  <path class="cls-4" d="M206.52,156.1l-53.6-9.13c-1.42-.24-2.39-1.77-2.19-3.4l.44-3.46c.21-1.64,1.52-2.77,2.94-2.53l53.6,9.13c1.42.24,2.39,1.77,2.19,3.4l-.44,3.46c-.21,1.64-1.52,2.77-2.94,2.53Z"/>
  <path class="cls-4" d="M134.64,155.47l70.76,12.06c1.42.24,2.39,1.77,2.19,3.4l-.44,3.46c-.21,1.64-1.52,2.77-2.94,2.53l-70.76-12.06c-1.42-.24-2.39-1.77-2.19-3.4l.44-3.46c.21-1.64,1.52-2.77,2.94-2.53Z"/>
</svg>